<svg width="111" height="150" viewBox="0 0 111 150" fill="none" xmlns="http://www.w3.org/2000/svg">
<path d="M110.5 93C110.5 134.421 84.6142 150 57 150C29.3858 150 0 134.421 0 93C0 51.5786 29.3858 0 57 0C84.6142 0 110.5 51.5786 110.5 93Z" fill="#1F3502"/>
<path d="M106 91.56C106 129.668 82.1054 144 56.6154 144C31.1253 144 4 129.668 4 91.56C4 53.4524 31.1253 6 56.6154 6C82.1054 6 106 53.4524 106 91.56Z" fill="#79D108"/>
<path fill-rule="evenodd" clip-rule="evenodd" d="M55 6C29.9927 7.93542 4 54.1936 4 91.4972C4 128.801 29.9927 143.322 55 143.918V6Z" fill="#7CDC02"/>
<circle cx="55" cy="92" r="38" fill="#76D003"/>
<circle cx="55" cy="92" r="36" fill="#F4BB77"/>
<path fill-rule="evenodd" clip-rule="evenodd" d="M55 128C74.8823 128 91 111.882 91 92C91 72.1177 74.8823 56 55 56L55 128Z" fill="#ECB371"/>
</svg>
