<svg width="70" height="150" viewBox="0 0 70 150" fill="none" xmlns="http://www.w3.org/2000/svg">
<path d="M30 5C30 2.23858 32.2386 0 35 0V0C37.7614 0 40 2.23858 40 5V150H30V5Z" fill="#7CDC02"/>
<path d="M0 80C0 77.2386 2.23858 75 5 75H15C23.2843 75 30 81.7157 30 90V95H15C6.71573 95 0 88.2843 0 80V80Z" fill="#7CDC02"/>
<path d="M0 40C0 37.2386 2.23858 35 5 35H15C23.2843 35 30 41.7157 30 50V55H15C6.71573 55 0 48.2843 0 40V40Z" fill="#7CDC02"/>
<path d="M0 5C0 2.23858 2.23858 0 5 0H15C23.2843 0 30 6.71573 30 15V20H15C6.71573 20 0 13.2843 0 5V5Z" fill="#7CDC02"/>
<path d="M40 110C40 101.716 46.7157 95 55 95H65C67.7614 95 70 97.2386 70 100V100C70 108.284 63.2843 115 55 115H40V110Z" fill="#7CDC02"/>
<path d="M40 70C40 61.7157 46.7157 55 55 55H65C67.7614 55 70 57.2386 70 60V60C70 68.2843 63.2843 75 55 75H40V70Z" fill="#7CDC02"/>
<path d="M40 30C40 21.7157 46.7157 15 55 15H65C67.7614 15 70 17.2386 70 20V20C70 28.2843 63.2843 35 55 35H40V30Z" fill="#7CDC02"/>
</svg>
