<svg width="215" height="150" viewBox="0 0 215 150" fill="none" xmlns="http://www.w3.org/2000/svg">
<path d="M5.65685 73.3345C2.53266 70.2103 2.53266 65.145 5.65685 62.0208L12.0208 55.6569C15.145 52.5327 20.2103 52.5327 23.3345 55.6569L82.7315 115.054C85.8557 118.178 85.8557 123.243 82.7315 126.368L70.7107 138.388L5.65685 73.3345Z" fill="#0090BD"/>
<path fill-rule="evenodd" clip-rule="evenodd" d="M94.7552 0C89.7431 0 85.5053 3.71029 84.8429 8.67835L67.5095 138.678C66.7102 144.673 71.3739 150 77.4218 150H204.578C210.626 150 215.29 144.673 214.49 138.678L197.157 8.67836C196.495 3.7103 192.257 0 187.245 0H94.7552ZM182.444 37.914C178.333 38.4188 175.409 42.1609 175.914 46.2721L183.226 105.825C183.731 109.936 187.473 112.86 191.584 112.355C195.696 111.85 198.619 108.108 198.114 103.997L190.802 44.4441C190.297 40.3328 186.555 37.4092 182.444 37.914Z" fill="#0090BD"/>
<path d="M68 136L72 104L65 97.5L59 127L68 136Z" fill="#037DA4"/>
</svg>
